<?xml version="1.0" encoding="utf-8"?>
<!-- Generator: Adobe Illustrator 18.0.0, SVG Export Plug-In . SVG Version: 6.00 Build 0)  -->
<!DOCTYPE svg PUBLIC "-//W3C//DTD SVG 1.1//EN" "http://www.w3.org/Graphics/SVG/1.1/DTD/svg11.dtd">
<svg version="1.1" id="Layer_1" xmlns="http://www.w3.org/2000/svg" xmlns:xlink="http://www.w3.org/1999/xlink" x="0px" y="0px"
	 viewBox="0 0 509.3 71.3" enable-background="new 0 0 509.3 71.3" xml:space="preserve">
<g class="logofill">
	<path d="M0,41.7C0.5,18.9,17.1,0,36.1,0c5.4,0,9,2,12.3,4.6c1.4,1.1,2.5,1.3,3.5,1.3c1.5,0,3.3-1.2,5.4-5.8h1.4l-5.8,26.7h-1.7
		C50.7,10.7,45.4,2,36.4,2C21.8,2,12.1,25.3,11.7,48.6c-0.2,11.2,2.8,19.6,11.4,19.6c8.2,0,12.2-6.9,13.7-13l2.3-9.1
		c1.2-4.7-0.2-5.9-4.8-5.9H31l0.4-1.7h27.2l-0.4,1.7h-0.5c-4.8,0-6.7,1.1-7.9,5.9l-5.9,24.1h-1.5c-0.3-4.2-2.3-6.6-4-6.6
		c-1.5,0-3.1,1.2-4.4,2.1c-3.2,2.3-6.7,4.6-12.9,4.6C9,70.3-0.4,59.9,0,41.7z"/>
	<path d="M69.9,52.3c0-15.1,12.9-26.7,25.3-26.7c8.9,0,15.5,7.1,15.5,17.4c0,15-12.7,27.2-25.6,27.2C76,70.2,69.9,62.4,69.9,52.3z
		 M101,36.1c0-6.5-2.3-9-5.2-9c-9.1,0-16.3,20-16.3,32.6c0,5.4,1.6,8.9,5.3,8.9C94.5,68.6,101,47.9,101,36.1z"/>
	<path d="M138.8,71.3l-6.2-60.9c-0.6-5.6-1.4-7.4-7-7.7l0.5-1.7h28.4l-0.4,1.7h-2.5c-6.3,0-8.2,3.5-7.6,11.2l3.7,44.1l24.1-40.3
		c2.4-4,4.8-9.1,4.8-11.5c0-2.2-1-3.5-5.1-3.5h-1.3l0.5-1.7h19.1l-0.4,1.7c-5.7,0.8-7.4,2.7-11.9,10l-35.7,58.6H138.8z"/>
	<path d="M180.6,52.3c0-15.1,12.9-26.7,25.3-26.7c8.9,0,15.5,7.1,15.5,17.4c0,15-12.7,27.2-25.6,27.2
		C186.7,70.2,180.6,62.4,180.6,52.3z M211.7,36.1c0-6.5-2.3-9-5.2-9c-9.1,0-16.3,20-16.3,32.6c0,5.4,1.6,8.9,5.3,8.9
		C205.2,68.6,211.7,47.9,211.7,36.1z"/>
	<path d="M236.6,61.6c0-1.8,0.5-4.2,0.9-6l7.3-26.7h-7l0.2-1.2c8.4-1,14.5-4,20.3-18h1.8l-5.2,17.5h12.4l-0.3,1.7h-12.6L246.8,56
		c-0.2,1.1-0.6,3.2-0.6,4.5c0.1,2.7,1.4,4.7,4.2,4.7c3.9,0,7.5-3.2,11.8-11.7l1.3,0.8C258.9,65.5,253.1,70,246.1,70
		C239.6,70,236.7,66.7,236.6,61.6z"/>
	<path d="M277.3,54.1c0.2-13.5,12.5-28.5,26.7-28.5c6.5,0,10.6,3.6,10.6,9.1C314.5,44,302,48.2,287.8,51c-0.1,1-0.2,2.2-0.2,3.4
		c0,8.6,3.1,12.5,7.8,12.5c4.3,0,9.9-3.2,14.7-9.8l1.3,1c-5.3,7.3-11.8,12.1-19.8,12.1C283.3,70.2,277.2,64.2,277.3,54.1z M306,34.2
		c0.1-4.9-2-6.7-4.3-6.7c-5.4,0-12.2,9.6-13.7,21.7C300.1,46.5,305.7,42.7,306,34.2z"/>
</g>
<g>
	<path d="M365.5,12.7c11.3,0.1,23,5.9,25.8,19.8h-14.1c-2.3-4.8-6-6.7-11.7-6.7c-9,0-13.9,7-13.9,15.6c0,9.3,5.4,15.4,13.9,15.4
		c5.8,0,9.4-1.5,12-6.9h-11.9V37.5h26.5c0.3,5.6,0.3,11-1.6,16.4c-4,11.7-14.6,16.2-25,16.2c-14.2,0-28.6-9.5-28.7-28.6
		C336.9,22.3,351.3,12.7,365.5,12.7z M371,43.9H385c-0.2,11.5-8.3,19.1-19.4,19.1c-12.2,0-20.9-9.1-20.9-21.6
		c0-12.3,8.7-21.8,20.9-21.7c6.6,0,13,2.9,16.4,8.6h1c-3.6-6.2-10.7-9.3-17.4-9.3c-10.9,0-21.8,7.8-21.8,22.4
		c0,14.6,10.9,22.5,21.8,22.4c11.4,0,20.3-8.2,20.3-19.9V43H371V43.9z"/>
	<path d="M430.9,52.7c0-3.9-4.6-4.6-10.2-4.9c-12.2-0.9-20.2-5-20.3-17.2c-0.5-24.2,43-24.2,42.7,0c-5,0-8.7,0-13.6,0
		c0-7.4-15-6.8-15.5-0.2c-0.3,4.2,3.8,5.1,8.9,5.7c11.1,1.2,22,2.6,22,16.6c0,23.5-45.6,24.2-45.3-0.5c4.8,0,9,0,13.8,0
		C413.4,59.4,430.9,59.2,430.9,52.7z M435.4,25.5c-6-11.3-29.1-8.4-28.8,5.1c0.2,9.6,7,11,15.1,11.7c7.8,0.6,15.5,0.7,15.5,10.4
		c0,12.4-22.6,14.9-28.9,4.7h-1c5.8,11.4,30.7,8.9,30.7-4.7c0-9.9-8.1-10.6-16.2-11.3c-7.8-0.6-14.3-1.8-14.3-10.8
		c-0.1-12.6,20.8-15.1,26.8-5.1H435.4z"/>
	<path d="M451.8,41.5c0-38.7,57.4-38.7,57.4,0C509.3,80.3,451.8,80.3,451.8,41.5z M502.3,41.5c0-30.1-43.4-30-43.4,0
		C458.9,71.6,502.3,71.6,502.3,41.5z M459.7,41.5c0,29.3,41.8,28.7,41.8,0C501.5,12.8,459.7,12.3,459.7,41.5z M494.6,41.5
		c0,20.3-28.1,20.3-28.1,0C466.6,21.3,494.6,21.3,494.6,41.5z"/>
</g>
</svg>
