<?xml version="1.0" encoding="utf-8"?>
<!-- Generator: Adobe Illustrator 18.0.0, SVG Export Plug-In . SVG Version: 6.00 Build 0)  -->
<!DOCTYPE svg PUBLIC "-//W3C//DTD SVG 1.1//EN" "http://www.w3.org/Graphics/SVG/1.1/DTD/svg11.dtd">
<svg version="1.1" id="Layer_1" xmlns="http://www.w3.org/2000/svg" xmlns:xlink="http://www.w3.org/1999/xlink" x="0px" y="0px"
	 viewBox="0 0 330.5 144.4" enable-background="new 0 0 330.5 144.4" xml:space="preserve">
<g>
	<path d="M7.1,57.3c0.5-22.8,17.1-41.7,36.1-41.7c5.4,0,9,2,12.3,4.6c1.4,1.1,2.5,1.3,3.5,1.3c1.5,0,3.3-1.2,5.4-5.8h1.4L60,42.4
		h-1.7c-0.5-16.1-5.8-24.8-14.8-24.8c-14.6,0-24.3,23.3-24.7,46.6c-0.2,11.2,2.8,19.6,11.4,19.6c8.2,0,12.2-6.9,13.7-13l2.3-9.1
		c1.2-4.7-0.2-5.9-4.8-5.9h-3.3l0.4-1.7h27.2l-0.4,1.7h-0.5c-4.8,0-6.7,1.1-7.9,5.9L51,85.8h-1.5c-0.3-4.2-2.3-6.6-4-6.6
		c-1.5,0-3.1,1.2-4.4,2.1c-3.2,2.3-6.7,4.6-12.9,4.6C16.1,85.9,6.7,75.5,7.1,57.3z"/>
	<path d="M77,67.9c0-15.1,12.9-26.7,25.3-26.7c8.9,0,15.5,7.1,15.5,17.4c0,15-12.7,27.2-25.6,27.2C83.1,85.8,77,78,77,67.9z
		 M108.1,51.7c0-6.5-2.3-9-5.2-9c-9.1,0-16.3,20-16.3,32.6c0,5.4,1.6,8.9,5.3,8.9C101.6,84.2,108.1,63.5,108.1,51.7z"/>
	<path d="M145.9,86.9L139.7,26c-0.6-5.6-1.4-7.4-7-7.7l0.5-1.7h28.4l-0.4,1.7h-2.5c-6.3,0-8.2,3.5-7.6,11.2l3.7,44.1l24.1-40.3
		c2.4-4,4.8-9.1,4.8-11.5c0-2.2-1-3.5-5.1-3.5h-1.3l0.5-1.7h19.1l-0.4,1.7c-5.7,0.8-7.4,2.7-11.9,10l-35.7,58.6H145.9z"/>
	<path d="M187.7,67.9c0-15.1,12.9-26.7,25.3-26.7c8.9,0,15.5,7.1,15.5,17.4c0,15-12.7,27.2-25.6,27.2
		C193.8,85.8,187.7,78,187.7,67.9z M218.8,51.7c0-6.5-2.3-9-5.2-9c-9.1,0-16.3,20-16.3,32.6c0,5.4,1.6,8.9,5.3,8.9
		C212.3,84.2,218.8,63.5,218.8,51.7z"/>
	<path d="M243.7,77.2c0-1.8,0.5-4.2,0.9-6l7.3-26.7h-7l0.2-1.2c8.4-1,14.5-4,20.3-18h1.8L262,42.8h12.4l-0.3,1.7h-12.6l-7.6,27.1
		c-0.2,1.1-0.6,3.2-0.6,4.5c0.1,2.7,1.4,4.7,4.2,4.7c3.9,0,7.5-3.2,11.8-11.7l1.3,0.8c-4.6,11.2-10.4,15.7-17.4,15.7
		C246.7,85.6,243.8,82.3,243.7,77.2z"/>
	<path d="M284.4,69.7c0.2-13.5,12.5-28.5,26.7-28.5c6.5,0,10.6,3.6,10.6,9.1c-0.1,9.3-12.6,13.5-26.8,16.3c-0.1,1-0.2,2.2-0.2,3.4
		c0,8.6,3.1,12.5,7.8,12.5c4.3,0,9.9-3.2,14.7-9.8l1.3,1c-5.3,7.3-11.8,12.1-19.8,12.1C290.4,85.8,284.3,79.8,284.4,69.7z
		 M313.1,49.8c0.1-4.9-2-6.7-4.3-6.7c-5.4,0-12.2,9.6-13.7,21.7C307.2,62.1,312.8,58.3,313.1,49.8z"/>
</g>
<g>
	<path d="M134.3,96.5c7.1,0,14.4,3.7,16.1,12.4h-8.8c-1.5-3-3.8-4.2-7.3-4.2c-5.7,0-8.7,4.4-8.7,9.8c0,5.8,3.4,9.6,8.7,9.6
		c3.6,0,5.9-1,7.5-4.3h-7.5V112h16.6c0.2,3.5,0.2,6.9-1,10.3c-2.5,7.3-9.2,10.1-15.6,10.1c-8.9,0-17.9-6-18-17.9
		C116.4,102.5,125.4,96.5,134.3,96.5z M137.7,116h8.7c-0.1,7.2-5.2,12-12.2,12c-7.6,0-13.1-5.7-13.1-13.5c0-7.7,5.5-13.6,13.1-13.6
		c4.1,0,8.1,1.8,10.3,5.4h0.6c-2.3-3.9-6.7-5.8-10.9-5.8c-6.8,0-13.6,4.9-13.6,14s6.8,14.1,13.6,14c7.1,0,12.7-5.1,12.7-12.5v-0.5
		h-9.3V116z"/>
	<path d="M175.1,121.5c0-2.5-2.9-2.9-6.4-3.1c-7.6-0.5-12.6-3.1-12.7-10.8c-0.3-15.1,26.9-15.1,26.7,0c-3.1,0-5.5,0-8.5,0
		c0-4.7-9.4-4.3-9.7-0.1c-0.2,2.7,2.4,3.2,5.6,3.6c7,0.8,13.8,1.6,13.8,10.4c0,14.7-28.5,15.1-28.3-0.3c3,0,5.6,0,8.7,0
		C164.2,125.7,175.1,125.6,175.1,121.5z M178,104.5c-3.8-7.1-18.2-5.3-18,3.2c0.2,6,4.4,6.9,9.5,7.3c4.9,0.4,9.7,0.5,9.7,6.5
		c0,7.8-14.1,9.3-18.1,3h-0.6c3.6,7.2,19.2,5.6,19.2-3c0-6.2-5.1-6.7-10.2-7.1c-4.9-0.4-9-1.2-9-6.8c0-7.9,13-9.5,16.8-3.2H178z"/>
	<path d="M188.2,114.5c0-24.2,35.9-24.2,35.9,0C224.1,138.8,188.2,138.8,188.2,114.5z M219.8,114.5c0-18.8-27.2-18.8-27.2,0
		C192.6,133.3,219.8,133.3,219.8,114.5z M193.1,114.5c0,18.3,26.2,18,26.2,0C219.3,96.6,193.1,96.3,193.1,114.5z M215,114.5
		c0,12.7-17.6,12.7-17.6,0C197.4,101.9,215,101.9,215,114.5z"/>
</g>
</svg>
